<svg width="20" height="19" viewBox="0 0 20 19" fill="none" xmlns="http://www.w3.org/2000/svg">
<path fill-rule="evenodd" clip-rule="evenodd" d="M9.74292 0C4.60132 0 0.464844 4.11672 0.464844 9.23377C0.464844 13.312 3.13229 16.7747 6.80486 18.0058C7.26877 18.0828 7.4234 17.8135 7.4234 17.5442C7.4234 17.3133 7.4234 16.7362 7.4234 15.9667C4.83327 16.5438 4.29205 14.7356 4.29205 14.7356C3.8668 13.6583 3.24827 13.389 3.24827 13.389C2.39778 12.8119 3.32558 12.8119 3.32558 12.8119C4.25339 12.8888 4.75595 13.7737 4.75595 13.7737C5.56779 15.1972 6.92084 14.774 7.46206 14.5432C7.53938 13.9276 7.77133 13.5429 8.04194 13.312C5.99303 13.0812 3.82815 12.2732 3.82815 8.7336C3.82815 7.73328 4.17607 6.88685 4.79461 6.27127C4.7173 6.04042 4.36937 5.11704 4.87193 3.80893C4.87193 3.80893 5.6451 3.57808 7.4234 4.77078C8.15792 4.57841 8.96975 4.46299 9.74292 4.46299C10.5161 4.46299 11.3279 4.57841 12.0624 4.77078C13.8407 3.57808 14.6139 3.80893 14.6139 3.80893C15.1165 5.07857 14.8072 6.00195 14.6912 6.27127C15.2711 6.92532 15.6577 7.73328 15.6577 8.7336C15.6577 12.2732 13.4928 13.0427 11.4052 13.2735C11.7532 13.5429 12.0238 14.12 12.0238 14.9664C12.0238 16.1976 12.0238 17.1979 12.0238 17.5057C12.0238 17.7365 12.1784 18.0443 12.681 17.9674C16.3535 16.7747 19.021 13.312 19.021 9.23377C19.021 4.11672 14.8845 0 9.74292 0Z" fill="#27272A"/>
</svg>
