<svg width="21" height="20" viewBox="0 0 21 20" fill="none" xmlns="http://www.w3.org/2000/svg">
<path d="M10.428 1.7394C13.0177 1.7394 13.3244 1.74906 14.3475 1.79548C14.9626 1.80297 15.5719 1.91538 16.1488 2.12783C16.5672 2.28841 16.9472 2.5344 17.2642 2.84997C17.5813 3.16554 17.8285 3.54369 17.9899 3.96008C18.2033 4.53427 18.3163 5.14063 18.3238 5.75281C18.37 6.77098 18.3801 7.07621 18.3801 9.65359C18.3801 12.231 18.3704 12.5362 18.3238 13.5544C18.3163 14.1666 18.2033 14.7729 17.9899 15.3471C17.8285 15.7635 17.5813 16.1416 17.2642 16.4572C16.9472 16.7728 16.5672 17.0188 16.1488 17.1794C15.5719 17.3918 14.9626 17.5042 14.3475 17.5117C13.3249 17.5577 13.0182 17.5678 10.428 17.5678C7.83776 17.5678 7.53107 17.5581 6.50847 17.5117C5.89335 17.5042 5.28408 17.3918 4.70714 17.1794C4.28875 17.0188 3.90879 16.7728 3.5917 16.4572C3.27462 16.1416 3.02745 15.7635 2.86609 15.3471C2.65263 14.7729 2.53968 14.1666 2.53215 13.5544C2.48597 12.5362 2.4758 12.231 2.4758 9.65359C2.4758 7.07621 2.4855 6.77098 2.53215 5.75281C2.53968 5.14063 2.65263 4.53427 2.86609 3.96008C3.02745 3.54369 3.27462 3.16554 3.5917 2.84997C3.90879 2.5344 4.28875 2.28841 4.70714 2.12783C5.28408 1.91538 5.89335 1.80297 6.50847 1.79548C7.53153 1.74952 7.83822 1.7394 10.428 1.7394ZM10.428 0C7.79527 0 7.46364 0.0110321 6.42903 0.0579188C5.62399 0.0738547 4.82751 0.225553 4.07344 0.50656C3.42658 0.749114 2.84069 1.12922 2.35664 1.62035C1.86271 2.10226 1.48045 2.68568 1.23658 3.32987C0.954227 4.08033 0.801801 4.87302 0.785789 5.6742C0.739601 6.70295 0.728516 7.033 0.728516 9.65313C0.728516 12.2733 0.739601 12.6033 0.786712 13.633C0.802725 14.4342 0.955151 15.2269 1.23751 15.9773C1.48111 16.6214 1.86304 17.2048 2.35664 17.6868C2.84095 18.1781 3.42717 18.5582 4.07437 18.8006C4.82843 19.0816 5.62492 19.2333 6.42995 19.2493C7.46456 19.2952 7.7948 19.3072 10.4289 19.3072C13.063 19.3072 13.3932 19.2962 14.4278 19.2493C15.2329 19.2333 16.0294 19.0816 16.7834 18.8006C17.4276 18.5521 18.0125 18.1726 18.5008 17.6863C18.9891 17.2 19.3701 16.6176 19.6194 15.9764C19.9017 15.2259 20.0541 14.4333 20.0702 13.6321C20.1164 12.6033 20.1274 12.2733 20.1274 9.65313C20.1274 7.033 20.1164 6.70295 20.0692 5.67329C20.0532 4.8721 19.9008 4.07941 19.6184 3.32895C19.3748 2.68485 18.9929 2.10143 18.4993 1.61943C18.015 1.12819 17.4288 0.748076 16.7816 0.50564C16.0275 0.224633 15.231 0.0729354 14.426 0.0569995C13.3923 0.0110322 13.0607 0 10.428 0Z" fill="#27272A"/>
<path d="M10.4262 4.69629C9.44109 4.69629 8.47808 4.98702 7.65898 5.53171C6.83987 6.07641 6.20146 6.8506 5.82446 7.7564C5.44747 8.66219 5.34883 9.6589 5.54102 10.6205C5.73321 11.5821 6.2076 12.4653 6.90419 13.1586C7.60078 13.8519 8.48829 14.324 9.45449 14.5153C10.4207 14.7065 11.4222 14.6084 12.3323 14.2332C13.2425 13.858 14.0204 13.2226 14.5677 12.4074C15.115 11.5922 15.4071 10.6338 15.4071 9.6534C15.4071 8.3387 14.8823 7.07783 13.9482 6.14819C13.0141 5.21856 11.7472 4.69629 10.4262 4.69629ZM10.4262 12.8711C9.78676 12.8711 9.16166 12.6824 8.62997 12.3288C8.09829 11.9753 7.68388 11.4727 7.43917 10.8848C7.19446 10.2968 7.13044 9.64983 7.25519 9.02566C7.37994 8.40148 7.68787 7.82814 8.14003 7.37814C8.5922 6.92813 9.16829 6.62168 9.79546 6.49752C10.4226 6.37336 11.0727 6.43708 11.6635 6.68063C12.2543 6.92417 12.7592 7.33659 13.1145 7.86574C13.4698 8.39489 13.6594 9.017 13.6594 9.6534C13.6594 10.5068 13.3187 11.3252 12.7124 11.9287C12.1061 12.5321 11.2837 12.8711 10.4262 12.8711Z" fill="#27272A"/>
<path d="M15.6053 5.65867C16.2482 5.65867 16.7693 5.14005 16.7693 4.5003C16.7693 3.86054 16.2482 3.34192 15.6053 3.34192C14.9625 3.34192 14.4414 3.86054 14.4414 4.5003C14.4414 5.14005 14.9625 5.65867 15.6053 5.65867Z" fill="#27272A"/>
</svg>
