<?xml version="1.0" standalone="no"?>
<!DOCTYPE svg PUBLIC "-//W3C//DTD SVG 20010904//EN"
 "http://www.w3.org/TR/2001/REC-SVG-20010904/DTD/svg10.dtd">
<svg version="1.0" xmlns="http://www.w3.org/2000/svg"
 width="179.000000pt" height="165.000000pt" viewBox="0 0 179.000000 165.000000"
 preserveAspectRatio="xMidYMid meet">

<g transform="translate(0.000000,165.000000) scale(0.100000,-0.100000)"
fill="#000000" stroke="none">
<path d="M860 1530 c0 -57 1 -60 25 -61 14 -1 31 -2 37 -3 7 -1 14 7 16 17 2
12 -3 17 -17 17 -18 0 -21 6 -21 45 0 38 -3 45 -20 45 -18 0 -20 -7 -20 -60z"/>
<path d="M710 1571 c-14 -4 -25 -12 -24 -19 1 -7 2 -35 3 -63 l1 -51 33 7 c57
12 67 16 67 31 0 12 -7 14 -30 9 -19 -4 -30 -3 -30 4 0 6 9 11 20 11 13 0 20
7 20 19 0 14 -5 18 -20 14 -11 -3 -20 0 -20 6 0 6 11 11 25 11 16 0 25 6 25
15 0 16 -26 18 -70 6z"/>
<path d="M460 1447 c-171 -135 -267 -346 -225 -497 8 -30 16 -82 17 -115 4
-91 17 -106 176 -205 78 -50 101 -90 83 -149 -16 -54 -80 -108 -136 -117 -100
-15 -185 54 -185 149 0 40 31 84 63 89 43 6 28 68 -17 68 -58 0 -125 -82 -126
-155 0 -85 65 -180 145 -211 175 -66 385 98 342 268 -13 53 -55 94 -155 151
-45 26 -86 56 -92 66 -9 18 -7 19 43 15 41 -4 59 -1 85 15 37 24 54 58 40 84
-13 26 -38 21 -68 -14 -24 -29 -30 -31 -64 -25 -51 10 -105 61 -116 109 -17
77 13 195 75 292 37 59 136 160 177 181 31 16 38 44 11 44 -10 0 -43 -19 -73
-43z"/>
<path d="M1070 1448 c-36 -24 -50 -48 -29 -48 7 0 20 7 30 16 36 32 90 35 177
9 33 -11 28 12 -8 30 -45 23 -130 20 -170 -7z"/>
<path d="M517 1377 c-24 -7 -39 -18 -43 -31 -2 -12 -3 -82 -2 -156 3 -133 3
-135 25 -132 12 2 50 -2 83 -8 55 -10 64 -9 81 6 33 29 43 84 25 127 -8 20
-22 37 -30 37 -20 0 -20 9 0 31 9 10 16 34 17 55 1 28 -5 42 -27 60 -29 26
-65 29 -129 11z m77 -53 c22 -21 20 -50 -4 -74 -35 -35 -50 -26 -50 29 0 39 4
51 18 54 9 3 18 5 19 6 1 0 9 -6 17 -15z m34 -177 c4 -49 -12 -69 -52 -65 -29
3 -31 6 -34 50 -3 50 5 58 58 55 21 -2 25 -7 28 -40z"/>
<path d="M738 1369 c-16 -9 -18 -27 -18 -145 0 -74 5 -144 10 -155 13 -23 62
-26 80 -4 8 9 22 12 41 8 22 -4 30 -1 36 13 4 10 2 19 -5 22 -8 2 -12 33 -12
93 0 49 -4 89 -9 89 -35 0 -41 -13 -41 -87 0 -72 -11 -113 -30 -113 -6 0 -10
59 -10 145 0 151 -2 158 -42 134z"/>
<path d="M1205 1370 c-11 -5 -32 -11 -47 -14 l-28 -6 0 -105 c0 -97 1 -105 19
-105 28 0 35 16 32 79 -3 65 12 111 34 111 12 0 15 -16 15 -86 0 -85 0 -86 23
-80 12 3 24 6 27 6 3 0 3 43 0 95 -6 112 -18 129 -75 105z"/>
<path d="M1383 1330 c-46 -28 -67 -74 -68 -145 l0 -60 -100 -50 c-55 -28 -139
-64 -187 -80 -66 -22 -88 -34 -88 -47 0 -10 4 -18 9 -18 26 0 198 69 294 117
l108 54 30 -26 c39 -32 109 -34 157 -5 96 59 96 201 0 260 -43 26 -113 26
-155 0z m138 -69 c33 -33 36 -58 14 -101 -29 -57 -81 -65 -126 -21 -38 39 -40
88 -3 125 36 35 77 34 115 -3z"/>
<path d="M1438 1212 c-29 -18 -33 -28 -19 -51 19 -30 108 20 95 54 -8 19 -41
18 -76 -3z"/>
<path d="M950 1301 c-28 -27 -30 -35 -30 -103 0 -44 5 -79 12 -86 28 -28 112
-8 152 36 31 36 9 46 -39 17 -47 -27 -79 -33 -73 -13 3 7 24 24 49 38 57 34
78 73 58 109 -12 21 -24 27 -57 29 -36 3 -47 -1 -72 -27z m87 -28 c4 -11 -45
-63 -59 -63 -5 0 -8 11 -8 24 0 39 57 71 67 39z"/>
<path d="M340 1180 c0 -5 14 -10 30 -10 17 0 30 5 30 10 0 6 -13 10 -30 10
-16 0 -30 -4 -30 -10z"/>
<path d="M330 1140 c0 -13 30 -13 50 0 11 7 7 10 -17 10 -18 0 -33 -4 -33 -10z"/>
<path d="M338 1113 c-30 -8 -20 -20 12 -15 17 2 30 8 30 13 0 9 -13 10 -42 2z"/>
<path d="M323 1073 c-7 -2 -13 -9 -13 -15 0 -12 50 -2 65 13 10 10 -30 12 -52
2z"/>
<path d="M415 1021 c-39 -10 -88 -36 -104 -55 -11 -13 -8 -20 13 -41 l26 -26
46 33 c45 32 49 33 143 33 85 0 106 -4 180 -33 84 -33 100 -32 101 4 0 15 -98
58 -176 78 -64 16 -176 20 -229 7z"/>
<path d="M858 1008 c-16 -11 -18 -37 -20 -208 -3 -166 -5 -195 -18 -195 -12 0
-16 21 -18 113 -2 98 -5 113 -18 108 -9 -3 -31 -6 -49 -6 -61 0 -128 -77 -105
-121 20 -37 80 -9 80 38 0 23 45 49 56 32 14 -23 -9 -58 -62 -95 -31 -21 -60
-46 -65 -56 -23 -42 0 -98 40 -98 10 0 34 11 54 24 26 18 38 21 46 13 9 -9 17
-8 31 1 11 6 28 12 38 12 10 0 27 6 37 14 10 7 27 11 37 8 28 -7 72 16 91 47
12 21 17 52 17 110 0 74 -2 84 -25 107 -20 20 -31 24 -57 19 l-33 -6 0 73 c0
65 -2 73 -20 76 -11 1 -28 -3 -37 -10z m110 -255 c3 -70 -9 -103 -38 -103 -18
0 -20 7 -20 73 0 75 11 100 40 95 11 -2 16 -19 18 -65z m-205 -121 c-9 -25
-44 -62 -60 -62 -24 0 -14 38 18 64 33 28 52 27 42 -2z"/>
<path d="M1600 987 c0 -8 8 -29 17 -48 28 -55 24 -152 -9 -219 -16 -31 -24
-58 -19 -63 29 -29 73 66 79 168 4 68 1 88 -18 128 -21 44 -50 64 -50 34z"/>
<path d="M1405 980 c-16 -6 -36 -8 -42 -5 -15 5 -79 -20 -88 -35 -3 -5 3 -17
13 -26 19 -16 21 -63 7 -181 -5 -47 -3 -48 44 -32 l31 11 0 97 c0 70 4 103 15
117 13 16 16 17 25 4 8 -12 11 -13 19 -1 15 23 47 3 64 -39 15 -39 29 -46 61
-34 18 7 21 46 6 73 -23 43 -99 68 -155 51z"/>
<path d="M130 911 c-11 -21 -14 -120 -4 -145 3 -9 11 -16 18 -16 7 0 11 30 12
90 1 89 -6 108 -26 71z"/>
<path d="M1118 914 c-43 -23 -58 -63 -58 -154 0 -68 3 -83 21 -101 31 -31 94
-21 132 21 25 28 27 36 27 120 0 77 -3 93 -20 110 -23 23 -64 25 -102 4z m70
-119 c3 -74 -8 -95 -50 -95 -16 0 -18 9 -18 73 0 78 10 100 45 95 17 -3 20
-12 23 -73z"/>
<path d="M1490 780 c0 -5 20 -10 45 -10 25 0 45 5 45 10 0 6 -20 10 -45 10
-25 0 -45 -4 -45 -10z"/>
<path d="M1495 740 c3 -5 15 -10 26 -10 11 0 17 5 14 10 -3 6 -15 10 -26 10
-11 0 -17 -4 -14 -10z"/>
<path d="M1494 705 c21 -16 32 -13 21 4 -3 6 -14 11 -23 11 -15 -1 -15 -2 2
-15z"/>
<path d="M1470 690 c0 -12 28 -25 36 -17 3 3 -4 10 -15 17 -15 7 -21 7 -21 0z"/>
<path d="M1456 656 c3 -9 11 -16 16 -16 13 0 5 23 -10 28 -7 2 -10 -2 -6 -12z"/>
<path d="M1397 577 c-30 -24 -62 -26 -183 -12 -109 12 -181 -19 -250 -108 -32
-41 -77 -153 -68 -168 2 -4 14 -4 27 -2 18 4 30 19 47 61 30 72 89 136 145
158 44 16 80 16 205 -1 61 -8 135 27 135 65 0 32 -22 35 -58 7z"/>
<path d="M230 510 c-8 -5 -11 -12 -7 -16 4 -4 15 0 24 9 18 18 8 23 -17 7z"/>
<path d="M255 480 c-10 -11 -13 -20 -8 -20 13 0 38 29 31 35 -3 3 -13 -4 -23
-15z"/>
<path d="M280 455 c-20 -24 -6 -28 15 -5 10 11 13 20 8 20 -6 0 -16 -7 -23
-15z"/>
<path d="M317 447 c-11 -29 -9 -43 4 -30 6 6 9 19 7 29 -3 18 -4 18 -11 1z"/>
<path d="M361 431 c-1 -24 2 -32 9 -25 7 7 7 19 1 35 -9 23 -10 22 -10 -10z"/>
<path d="M744 449 c-31 -9 -72 -45 -62 -54 3 -3 26 4 53 16 38 17 58 20 102
14 43 -5 54 -4 51 6 -8 25 -86 35 -144 18z"/>
<path d="M1164 405 c-42 -43 -45 -45 -103 -45 -49 0 -62 -4 -71 -19 -5 -11
-10 -23 -10 -27 0 -3 33 -3 73 0 71 7 74 6 111 -24 22 -17 49 -33 61 -36 22
-6 270 12 325 22 67 14 23 24 -105 24 -83 0 -135 4 -135 10 0 6 36 10 89 10
48 0 109 3 135 6 88 13 45 24 -89 24 -83 0 -135 4 -135 10 0 6 46 10 119 10
66 0 126 3 135 6 42 16 4 24 -119 24 -83 0 -135 4 -135 10 0 6 52 10 135 10
74 0 135 4 135 9 0 16 -44 21 -208 21 l-164 0 -44 -45z"/>
<path d="M578 349 c-10 -5 -18 -20 -18 -33 0 -44 20 -49 165 -44 74 2 137 6
139 9 2 2 7 21 11 42 l7 37 -143 0 c-79 0 -152 -5 -161 -11z m40 -37 c2 -7 -3
-12 -12 -12 -9 0 -16 7 -16 16 0 17 22 14 28 -4z"/>
<path d="M548 179 c-22 -13 -23 -52 -2 -74 13 -13 40 -15 177 -13 l162 3 0 45
0 45 -160 2 c-96 2 -167 -1 -177 -8z m52 -40 c0 -5 -7 -9 -15 -9 -15 0 -20 12
-9 23 8 8 24 -1 24 -14z m190 0 c0 -5 -7 -9 -15 -9 -15 0 -20 12 -9 23 8 8 24
-1 24 -14z"/>
<path d="M910 140 c0 -47 2 -50 25 -50 23 0 25 3 25 50 0 47 -2 50 -25 50 -23
0 -25 -3 -25 -50z"/>
<path d="M982 158 l3 -33 160 0 c137 0 165 3 188 18 15 10 27 13 27 7 0 -28
-70 -40 -225 -40 -97 0 -155 -4 -155 -10 0 -17 325 -13 360 5 28 15 70 60 70
76 0 5 -97 9 -216 9 l-215 0 3 -32z"/>
</g>
</svg>
